<?xml version="1.0" encoding="utf-8"?>
<!-- Generator: Adobe Illustrator 25.2.3, SVG Export Plug-In . SVG Version: 6.00 Build 0)  -->
<svg version="1.1" id="Layer_1" xmlns="http://www.w3.org/2000/svg" xmlns:xlink="http://www.w3.org/1999/xlink" x="0px" y="0px"
	 viewBox="0 0 683.9 94.8" style="enable-background:new 0 0 683.9 94.8;" xml:space="preserve">
<style type="text/css">
	.st0{fill:#144B3B;}
</style>
<g id="Layer_2_1_">
	<g id="Layer_3">
		<path class="st0" d="M51.2,7c11.1,0,19.4,2.6,25.1,7.7c5.7,5.1,8.5,12.7,8.5,22.7c0,9.2-2.8,16.5-8.4,21.9S63,67.5,53.4,67.5
			c-3.8,0.1-7.6-0.5-11.3-1.5v22.7c0.1,1.2-0.2,2.5-0.9,3.5c-0.6,0.7-1.7,1-3.4,1H11.7c-1.6,0-2.8-0.3-3.4-1c-0.7-1-1-2.3-0.9-3.5
			V21.8c0.1-1.6-0.1-3.2-0.5-4.8c-0.4-1-1-2-1.8-2.7C3.7,13.1,2.2,12,0.6,11C0.2,10.8,0,10.3,0,9.9V8.3C0,7.4,0.5,7,1.5,7H51.2z
			 M42.1,58.7c0.6,0.7,1.5,1.1,2.5,1c0.7,0,1.4-0.3,1.8-0.9c0.4-0.7,0.7-1.5,0.6-2.3v-40c0-0.8-0.2-1.6-0.7-2.3
			c-0.4-0.6-1.1-0.9-1.8-0.9c-0.9-0.1-1.9,0.3-2.5,1L42.1,58.7z"/>
		<path class="st0" d="M101.6,27.3c7.4,0,12.5,2.2,15.2,6.6c2.3-2.6,5.2-4.7,8.4-6.1c3.4-1.4,7.1-2.1,10.8-2
			c6.3,0,11.5,1.7,15.6,5.2c3.9,3.2,6.2,8.1,6.1,13.2c0.1,4.2-1.7,8.3-4.9,11c-3.3,2.8-7.5,4.2-12.7,4.2s-9.3-1.3-12.5-3.9
			c-3.1-2.3-4.9-6-4.9-9.8c-0.1-3.1,1.1-6.2,3.4-8.3c2.5-2.2,5.7-3.4,9-3.2c0.2-0.4,0.4-0.8,0.4-1.3c0-1.2-0.9-1.8-2.7-1.8
			c-3.7,0-7.3,1.6-9.8,4.3c-2.7,2.8-4.2,6.5-4.2,10.4c-0.1,3.3,1,6.5,2.9,9.1c2.2,2.8,5.1,5,8.3,6.3c1,0.3,1.8,0.9,2.4,1.7
			c0.5,1,0.7,2.2,0.6,3.3V89c0,2.8-1.5,4.1-4.4,4.1h-26.3c-2.7,0-4-1.4-4-4.1V43.3c0.1-2.4-0.3-4.8-1.3-6.9
			c-1.2-1.9-2.8-3.4-4.8-4.5c-0.4-0.2-0.8-0.5-1.1-0.9c-0.1-0.3-0.2-0.6-0.2-0.9v-1.5c0-0.9,0.5-1.3,1.6-1.3H101.6z"/>
		<path class="st0" d="M179.5,56.1c3.1,3.3,7.6,5.1,12.1,4.9c4.7-0.2,9.2-2.3,12.4-5.8c2.5-2.4,4.4-5.3,5.6-8.5
			c1.1-2.9,1.4-6,0.9-9.1c-0.1-0.4-0.2-0.9-0.1-1.3c0.1-0.3,0.3-0.6,0.5-0.8l1.1-1.1c0.3-0.3,0.6-0.4,1-0.3c0.7,0.2,1.3,0.6,1.8,1
			c1.1,0.9,2.2,1.8,3.2,2.9c4.3,4.2,7.6,9.4,9.5,15.1c1.7,5.3,1.9,11,0.5,16.5c-1.6,5.8-4.7,11.1-9,15.3c-4,4.2-9.1,7.2-14.6,8.8
			c-5.5,1.5-11.2,1.4-16.7-0.2c-6-1.8-11.4-5.1-15.7-9.5c-4.5-4.3-7.8-9.6-9.6-15.5c-1.7-5.5-1.7-11.4-0.1-17
			c1.9-6.1,5.3-11.6,9.9-16c3.1-3.2,6.8-5.8,10.9-7.6c3.5-1.6,7.4-2.2,11.2-1.9c3.6,0.4,6.9,2,9.5,4.6c1.8,1.8,2.9,4,3.4,6.5
			c0.5,2.7,0.3,5.4-0.6,8c-0.9,2.9-2.6,5.5-4.7,7.6c-2.7,2.9-6.4,4.6-10.4,4.7c-3.8,0.1-7.5-1.4-10.1-4.2c-2.2-2-3.4-4.9-3.1-7.9
			c0.3-3,1.7-5.8,4.4-8.5l0.5-0.5c0-0.6-0.3-1.1-0.7-1.5c-0.7-0.7-1.7-0.5-2.9,0.8c-2.8,2.6-4.4,6.3-4.4,10.2
			C175,49.7,176.7,53.4,179.5,56.1z"/>
		<path class="st0" d="M237.9,15.9c0.1-2.4-0.3-4.8-1.3-6.9c-1.2-1.9-2.8-3.4-4.8-4.5c-0.4-0.2-0.8-0.5-1.1-0.8
			c-0.1-0.3-0.2-0.5-0.2-0.8V1.3c0-0.9,0.5-1.3,1.6-1.3h33.5c1.2-0.1,2.5,0.2,3.4,1c0.7,0.9,1.1,2,1,3.2v29.5
			c4.2-5.3,10.1-7.9,17.6-7.9c6.2,0,11,1.9,14.2,5.6s4.9,9,4.9,15.8V89c0.1,1.1-0.3,2.3-1,3.2c-1,0.8-2.2,1.1-3.4,1h-23.3
			c-1.2,0.1-2.5-0.2-3.4-1c-0.7-0.9-1.1-2-1-3.2V44.4c0-0.8-0.2-1.6-0.6-2.3c-0.4-0.6-1.1-0.9-1.8-0.9c-0.9-0.1-1.7,0.3-2.2,1V89
			c0.1,1.1-0.3,2.3-1,3.2c-1,0.8-2.2,1.1-3.4,1h-23.3c-1.2,0.1-2.5-0.2-3.4-1c-0.7-0.9-1.1-2-1-3.2L237.9,15.9z"/>
		<path class="st0" d="M347.9,27.3c1.2-0.1,2.5,0.2,3.4,1c0.7,0.9,1.1,2,1,3.2V76c0,0.8,0.2,1.6,0.6,2.3c0.4,0.6,1.1,0.9,1.8,0.9
			c0.9,0.1,1.7-0.3,2.2-1V31.5c-0.1-1.1,0.3-2.3,1-3.2c1-0.8,2.2-1.1,3.4-1h23.3c1.2-0.1,2.4,0.3,3.4,1c0.8,0.9,1.1,2,1,3.2v42.1
			c-0.1,1,0.1,2,0.4,3c0.2,0.5,0.7,0.8,1.3,0.8c0.7,0,1.4-0.4,1.7-1c0.5-1.3,0.8-2.6,0.9-4c0.1-0.9,0.2-1.8,0.5-2.7
			c0.2-0.3,0.6-0.5,1-0.4h2.2c0.5,0,1,0.4,1.1,0.9c0.3,1,0.4,2,0.3,3c0,6.7-1.9,12-5.6,15.9c-3.7,3.8-8.8,5.7-15.4,5.7
			c-3.9,0.1-7.7-0.9-11-2.8c-3.2-1.9-5.9-4.6-7.5-8c-1.8,3.4-4.6,6.2-8,8c-3.6,1.9-7.6,2.9-11.7,2.8c-6.2,0-11-1.9-14.2-5.6
			s-4.9-9-4.9-15.8v-30c0.1-2.4-0.3-4.8-1.3-6.9c-1.2-1.9-2.8-3.4-4.8-4.5c-0.4-0.2-0.8-0.5-1.1-0.9c-0.1-0.3-0.2-0.6-0.2-0.9v-1.5
			c0-0.9,0.5-1.3,1.5-1.3H347.9z"/>
		<path class="st0" d="M434.6,63.2c0,2,1.7,3.8,5,5.5c3.5,1.7,7.4,2.6,11.3,2.5c8.2,0,14.9-2.8,20.2-8.3c0.3-0.4,0.7-0.7,1.1-1
			c0.3-0.2,0.7-0.2,1-0.2h1.6c0.5,0,1,0.2,1.2,0.7c0.3,0.7,0.4,1.5,0.3,2.3c0,5.3-1.5,10.4-4.3,14.8c-3.1,4.7-7.3,8.5-12.3,10.9
			c-5.5,2.8-11.6,4.2-17.8,4.2c-6.6,0.1-13-1.4-18.9-4.3c-5.5-2.7-10.2-6.9-13.4-12.1c-3.4-5.4-5.1-11.6-5-18
			c-0.1-6.2,1.5-12.4,4.7-17.8c3.2-5.2,7.8-9.5,13.3-12.2c6.3-3.1,13.2-4.6,20.1-4.5c5.3-0.1,10.6,0.8,15.6,2.7
			c4.3,1.6,8.1,4.2,11,7.8c2.6,3.3,4.1,7.4,4,11.7c0.1,5.3-2.1,10.4-6.1,13.9c-4.1,3.7-9.2,5.5-15.4,5.5c-6.2,0-11.3-2.1-15.2-6.2
			c-0.5,0-1,0.2-1.4,0.6C434.8,62.1,434.6,62.7,434.6,63.2z M438.5,54.3c0.5,0.7,1.3,1,2.1,1c1.5,0,2.3-0.9,2.3-2.6V34.3
			c0-1.7-0.8-2.6-2.3-2.6c-0.8,0-1.6,0.3-2.1,1V54.3z"/>
		<path class="st0" d="M489.5,27.3c7.4,0,12.5,2.2,15.2,6.6c2.3-2.6,5.2-4.7,8.4-6.1c3.4-1.4,7.1-2.1,10.8-2
			c6.3,0,11.5,1.7,15.5,5.2c4,3.2,6.2,8.1,6.1,13.2c0.1,4.2-1.7,8.3-4.9,11c-3.3,2.8-7.5,4.2-12.7,4.2c-5.2,0-9.3-1.3-12.5-3.9
			c-3.1-2.3-4.9-6-4.9-9.8c-0.1-3.1,1.2-6.2,3.5-8.3c2.4-2.2,5.7-3.4,8.9-3.2c0.2-0.4,0.4-0.8,0.4-1.3c0-1.2-0.9-1.8-2.7-1.8
			c-3.8,0-7.3,1.6-9.9,4.3c-2.7,2.8-4.2,6.5-4.1,10.4c-0.1,3.3,1,6.5,2.9,9.1c2.2,2.8,5.1,5,8.4,6.3c1,0.3,1.8,0.9,2.4,1.7
			c0.5,1,0.7,2.2,0.6,3.3V89c0,2.8-1.5,4.1-4.4,4.1h-26.3c-2.7,0-4-1.4-4-4.1V43.3c0.1-2.4-0.3-4.8-1.3-6.9
			c-1.2-1.9-2.9-3.4-4.8-4.5c-0.4-0.2-0.8-0.5-1.1-0.8c-0.1-0.3-0.2-0.6-0.2-0.9v-1.6c0-0.9,0.5-1.3,1.6-1.3H489.5z"/>
		<path class="st0" d="M564.1,13.3c0.1-1.3,0.7-2.4,1.6-3.3c1-0.6,2.1-0.9,3.3-0.8h14.1c1.2-0.1,2.5,0.2,3.4,1c0.7,0.9,1.1,2,1,3.2
			v14h12.8c1,0,1.6,0.4,1.6,1.3V31c0,0.9-0.5,1.3-1.6,1.3h-12.8v40.6c-0.1,1.2,0.1,2.4,0.7,3.5c0.7,0.7,1.7,1,2.7,0.9
			c0.9,0.1,1.7-0.3,2.3-1c0.7-1.2,1.1-2.6,1.2-4c0-0.9,0.2-1.8,0.6-2.6c0.2-0.4,0.7-0.6,1.1-0.5h2.1c0.5,0,1,0.4,1.1,0.9
			c0.3,1,0.4,2.1,0.3,3.1c0,6.9-1.9,12.2-5.7,15.9s-9.2,5.6-16.2,5.6c-7.2,0-12.9-2-16.9-6s-6-9.6-6-16.7V32.3h-7.6
			c-1,0-1.5-0.4-1.5-1.3v-2.3c0-0.9,0.5-1.3,1.5-1.3h0.5c4.1,0,7-0.4,8.9-1.2c1.9-0.8,3.5-2.2,4.5-4
			C562.5,19.4,563.5,16.4,564.1,13.3z"/>
		<path class="st0" d="M663.2,94.7c-8.7,0-14.9-3.6-18.7-10.8c-1.7,3.3-4.2,6.2-7.3,8.2c-3.3,1.8-7,2.7-10.7,2.6
			c-6,0-10.8-1.5-14.4-4.4c-3.6-2.8-5.6-7.1-5.4-11.7c-0.2-3.8,1.5-7.5,4.5-10c3-2.5,7.6-4.1,13.8-5c15.9-2.1,23.8-8.1,23.8-18
			c0-3.8-1.4-7.6-4.1-10.3c-2.5-2.8-6.1-4.4-9.8-4.3c-1.8,0-2.7,0.6-2.7,1.8c0,0.5,0.1,0.9,0.4,1.3c3.3-0.1,6.5,1,8.9,3.2
			c2.3,2.1,3.6,5.2,3.5,8.3c0,3.9-1.8,7.6-5,9.9c-3.3,2.6-7.6,3.9-12.8,3.9s-9.4-1.3-12.6-4c-3.1-2.6-4.8-6.4-4.6-10.4
			c0-5.8,2.8-10.4,8.4-13.9c5.6-3.5,13-5.2,22.3-5.2c11.1,0,19.5,2.7,25.2,8s8.6,13.2,8.6,23.6v16.2c-0.1,1,0.1,2,0.4,3
			c0.2,0.5,0.7,0.8,1.3,0.8c0.7,0,1.4-0.4,1.7-1c0.5-1.3,0.8-2.6,0.9-4c0-0.9,0.2-1.8,0.5-2.7c0.2-0.3,0.6-0.5,1-0.4h2.2
			c0.5,0,1,0.4,1.1,0.9c0.3,1,0.4,2,0.3,3c0,6.9-1.8,12.2-5.4,16C675,92.9,669.9,94.8,663.2,94.7z M642.4,66.7c-0.5-0.7-1.3-1-2.1-1
			c-1.5,0-2.2,0.9-2.2,2.6v8.3c0,1.7,0.7,2.6,2.2,2.6c0.8,0,1.6-0.3,2.1-1V66.7z"/>
	</g>
</g>
</svg>
